<?xml version="1.0" standalone="no"?>
<!DOCTYPE svg PUBLIC "-//W3C//DTD SVG 20010904//EN"
 "http://www.w3.org/TR/2001/REC-SVG-20010904/DTD/svg10.dtd">
<svg version="1.0" xmlns="http://www.w3.org/2000/svg"
 width="1024.000000pt" height="1024.000000pt" viewBox="0 0 1024.000000 1024.000000"
 preserveAspectRatio="xMidYMid meet">
<metadata>
Created by potrace 1.11, written by Peter Selinger 2001-2013
</metadata>
<g transform="translate(0.000000,1024.000000) scale(0.100000,-0.100000)"
fill="#000000" stroke="none">
<path d="M4937 9864 c-1 -1 -68 -5 -148 -8 -80 -4 -156 -8 -170 -11 -13 -2
-42 -6 -64 -10 -104 -15 -169 -26 -175 -30 -4 -2 -22 -7 -41 -10 -38 -7 -227
-69 -274 -90 -17 -8 -41 -19 -55 -24 -99 -43 -279 -159 -394 -255 -90 -76
-311 -284 -595 -563 -108 -105 -200 -192 -206 -192 -5 -1 -10 4 -10 10 0 29
-38 39 -134 35 -106 -4 -227 -28 -460 -88 -84 -22 -163 -42 -175 -44 -11 -2
-32 -6 -46 -9 -14 -3 -36 -7 -50 -10 -106 -21 -199 -34 -360 -50 -260 -26
-323 -46 -407 -133 -66 -69 -119 -165 -248 -447 -15 -33 -65 -143 -112 -245
-158 -344 -178 -444 -96 -471 l35 -11 -41 -19 c-169 -75 -283 -256 -315 -499
-7 -52 -8 -226 -2 -285 2 -22 7 -74 11 -115 4 -41 9 -83 11 -93 1 -9 5 -44 8
-76 6 -57 12 -104 21 -166 3 -16 7 -48 11 -70 5 -37 34 -180 54 -270 12 -54
66 -207 96 -273 37 -81 101 -177 187 -282 138 -165 205 -269 226 -345 10 -39
13 -41 78 -59 123 -35 198 -58 204 -65 4 -3 10 -37 14 -76 8 -85 23 -153 40
-181 11 -17 22 -21 60 -19 l47 1 -7 -74 c-4 -41 -8 -82 -10 -91 -1 -9 -6 -50
-10 -91 -4 -41 -8 -82 -10 -90 -2 -8 -6 -51 -9 -95 -4 -44 -9 -87 -11 -95 -2
-8 -6 -46 -10 -85 -7 -83 -24 -246 -30 -294 -3 -18 -8 -63 -10 -100 -3 -36 -7
-77 -10 -91 -2 -14 -7 -61 -11 -105 -3 -44 -8 -88 -9 -97 -2 -9 -6 -49 -10
-90 -3 -40 -8 -84 -10 -98 -2 -14 -6 -59 -10 -100 -3 -41 -8 -91 -10 -110 -2
-19 -7 -64 -10 -100 -4 -36 -8 -81 -10 -100 -2 -19 -6 -64 -10 -100 -3 -36 -8
-85 -10 -110 -10 -94 -14 -148 -21 -230 -3 -47 -7 -101 -9 -120 -6 -55 -6
-212 -1 -240 3 -14 8 -49 10 -79 3 -30 7 -55 8 -57 3 -2 47 6 114 20 12 2 37
7 55 10 19 3 75 14 124 24 l90 18 75 -23 c226 -71 576 -147 810 -178 25 -3 56
-7 70 -10 14 -2 57 -7 95 -11 39 -3 86 -8 105 -10 99 -9 283 -17 437 -18 94
-1 173 -3 176 -6 3 -3 8 -48 11 -100 12 -182 16 -225 21 -255 2 -16 7 -75 10
-130 4 -55 8 -105 10 -112 3 -8 -12 -13 -43 -15 -44 -3 -47 -5 -53 -38 -9 -44
-18 -109 -25 -185 l-6 -60 481 0 481 0 10 31 c25 74 32 184 16 239 -8 30 -20
44 -46 58 -44 22 -79 17 -228 -29 -116 -37 -125 -37 -206 -21 -39 8 -84 15
-100 16 -16 1 -31 2 -33 4 -3 4 -9 67 -18 182 -11 147 -25 328 -31 387 -3 34
0 48 8 49 7 0 27 2 43 4 17 2 59 7 95 10 36 4 72 8 80 10 8 2 38 6 65 9 28 4
57 9 65 11 8 2 38 6 65 10 28 3 68 10 90 15 22 5 54 11 70 14 17 3 100 23 185
45 85 21 158 36 162 32 3 -3 9 -58 12 -121 4 -63 8 -128 10 -145 3 -16 7 -73
10 -125 6 -91 15 -209 21 -277 2 -29 0 -33 -24 -35 -14 0 -32 -2 -40 -2 -8 -1
-15 -14 -17 -31 -5 -54 -14 -124 -19 -158 l-6 -34 380 0 379 -1 8 37 c4 20 9
43 11 51 2 8 4 40 4 70 0 78 -23 105 -87 104 -27 0 -79 -10 -115 -22 -87 -28
-136 -34 -181 -20 -40 12 -41 14 -53 193 -3 44 -7 113 -10 152 -3 40 -7 106
-10 145 -3 40 -8 109 -11 153 -13 162 -21 143 76 177 132 46 332 119 365 134
17 7 80 33 140 58 197 80 557 250 705 333 118 66 277 155 290 163 98 60 248
152 260 160 8 6 44 29 80 52 36 23 67 45 68 50 2 4 7 8 12 8 5 0 35 18 67 39
54 36 73 42 251 76 l192 38 0 113 c0 110 -1 114 -28 146 -95 110 -185 275
-216 393 -12 48 -14 92 -9 220 11 303 5 777 -11 915 -2 14 -7 61 -11 105 -4
44 -9 88 -11 99 -2 10 -6 37 -8 60 -3 22 -7 50 -10 61 -2 11 -7 40 -11 65 -19
128 -90 355 -151 485 -5 11 11 20 151 86 50 23 137 64 195 92 58 27 141 66
185 87 44 20 123 58 175 82 52 25 140 67 195 93 191 90 251 118 413 196 90 44
165 79 167 79 2 0 70 32 152 71 309 149 338 162 356 161 10 0 52 -34 92 -76
55 -55 94 -84 151 -113 75 -37 81 -38 178 -37 188 1 290 14 332 41 33 21 53
90 58 198 1 20 12 39 33 59 36 31 64 84 98 191 27 81 21 102 -42 154 l-37 31
22 23 c26 27 40 127 28 193 -8 41 -80 120 -137 150 -62 32 -233 23 -387 -21
-81 -23 -90 -15 -67 54 9 27 18 72 20 98 18 212 18 207 -4 255 -31 66 -85 125
-128 139 -67 22 -245 -6 -291 -46 -25 -21 -27 -29 -27 -103 l0 -80 58 -85 c61
-90 77 -140 71 -223 -3 -47 -13 -67 -59 -119 -49 -54 -88 -171 -89 -268 -1
-32 -6 -61 -12 -65 -7 -4 -14 -23 -17 -42 -8 -54 -16 -68 -55 -92 -97 -58
-175 -112 -257 -177 -49 -40 -134 -102 -188 -137 -92 -61 -368 -225 -412 -245
-11 -5 -33 -17 -50 -27 -104 -64 -915 -475 -922 -468 -3 2 0 28 6 58 32 167
31 342 -4 543 -19 108 -25 137 -31 157 -3 9 -7 25 -9 36 -9 48 -90 307 -115
367 -4 11 -25 63 -45 115 -48 120 -73 177 -141 317 -30 61 -54 113 -54 116 0
2 -20 40 -43 83 -24 44 -65 119 -91 168 -74 138 -247 423 -372 614 -63 95
-114 175 -114 178 0 2 87 61 193 131 343 225 438 307 498 428 43 87 49 194 18
307 -117 429 -240 618 -451 700 -79 31 -144 45 -293 63 -16 2 -183 7 -370 11
-187 3 -366 7 -398 8 -32 0 -59 0 -60 0z"/>
</g>
</svg>
